<?xml version="1.0" standalone="no"?>
<!DOCTYPE svg PUBLIC "-//W3C//DTD SVG 20010904//EN"
 "http://www.w3.org/TR/2001/REC-SVG-20010904/DTD/svg10.dtd">
<svg version="1.0" xmlns="http://www.w3.org/2000/svg"
 width="265.000000pt" height="265.000000pt" viewBox="0 0 265.000000 265.000000"
 preserveAspectRatio="xMidYMid meet">
<metadata>
Created by potrace 1.14, written by Peter Selinger 2001-2017
</metadata>
<g transform="translate(0.000000,265.000000) scale(0.100000,-0.100000)"
fill="#000000" stroke="none">
<path d="M1525 2549 c-96 -36 -245 -265 -319 -492 l-33 -99 -23 59 c-111 281
-265 459 -379 438 -101 -19 -126 -70 -118 -243 7 -158 47 -310 131 -499 20
-45 36 -85 36 -90 0 -5 -51 4 -112 20 -266 68 -594 31 -685 -77 -32 -38 -26
-86 14 -128 71 -75 375 -191 688 -263 28 -6 28 -7 -28 -30 -191 -77 -536 -346
-597 -466 -15 -29 -17 -40 -7 -60 51 -100 304 -52 635 122 63 32 116 59 118
59 3 0 0 -8 -5 -17 -5 -10 -10 -22 -10 -28 -1 -5 -11 -39 -22 -75 -32 -103
-48 -218 -46 -316 3 -104 16 -132 70 -158 124 -58 260 49 353 278 18 45 38 81
44 81 7 0 41 -53 76 -118 77 -142 132 -224 183 -274 57 -55 64 -60 109 -74 51
-15 104 -5 139 26 26 22 28 29 29 107 2 107 -24 267 -62 391 -7 24 7 21 52 -9
149 -101 313 -155 451 -148 110 5 183 56 183 127 0 91 -170 266 -423 436 -43
29 -77 54 -75 57 2 2 31 6 64 9 308 25 582 161 663 329 32 65 38 145 15 185
-26 44 -118 81 -189 75 -109 -8 -168 -16 -212 -28 -29 -8 -53 -11 -52 -8 0 4
9 21 19 37 63 100 103 214 101 284 -6 183 -221 174 -466 -20 -48 -38 -89 -68
-91 -66 -2 1 4 25 12 52 37 123 52 300 33 400 -14 76 -62 166 -104 194 -41 27
-114 36 -160 20z m52 -268 c-6 -96 -8 -109 -29 -211 -6 -30 -12 -59 -14 -65
-20 -102 -159 -551 -173 -559 -8 -5 -7 109 3 287 12 202 62 400 143 562 64
127 78 124 70 -14z m-679 -103 c32 -35 66 -111 107 -238 54 -170 84 -287 91
-360 7 -65 7 -65 -14 -47 -45 41 -209 395 -237 512 -19 85 -8 154 26 155 3 0
15 -10 27 -22z m1165 -330 c-69 -156 -214 -323 -335 -387 -18 -10 -51 -27 -72
-40 -51 -29 -67 -16 -40 34 46 87 355 415 437 466 44 26 46 7 10 -73z m-1521
-283 c75 -16 176 -58 364 -153 184 -92 200 -102 218 -133 14 -24 14 -28 1 -39
-47 -39 -638 104 -823 199 -99 50 -93 113 13 134 44 9 168 4 227 -8z m1886
-29 c16 -193 -306 -365 -604 -323 -57 8 -134 28 -138 36 -3 4 37 29 87 55 51
27 121 68 157 92 85 56 208 110 345 149 141 41 149 41 153 -9z m-866 -413 c28
-16 58 -33 67 -38 331 -212 511 -376 528 -482 l6 -36 -39 7 c-156 30 -561 378
-630 541 -13 31 -13 35 1 35 9 0 39 -12 67 -27z m-493 -18 c15 -16 -138 -108
-414 -251 -212 -109 -275 -138 -275 -128 0 17 138 134 235 199 195 130 416
218 454 180z m325 -195 c85 -94 128 -186 144 -311 15 -121 -17 -144 -72 -50
-63 108 -182 403 -171 422 9 14 58 -16 99 -61z"/>
</g>
</svg>
